# xmcd
#
# Track frame offsets:
#	187
#	11580
#	25720
#	41845
#	56352
#	77170
#	93000
#	107350
#	124035
#	140762
#	156882
#
# Disc length: 2312 seconds
#
# Revision: 5
# Processed by: cddbd v1.5.1PL2 Copyright (c) Steve Scherf et al.
# Submitted via: dBpowerAMP V4.0
#
DISCID=7f09060b
DTITLE=Alabama - In Pictures
DYEAR=1995
DGENRE=country
TTITLE0=Sunday Drive
TTITLE1=She Ain't Your Ordinary Girl
TTITLE2=My Love Belongs To You
TTITLE3=I've Loved A Lot More Than I've Hurt
TTITLE4=Spin The Wheel
TTITLE5=Nothing Comes Close
TTITLE6=Say I
TTITLE7=It Works
TTITLE8=The Maker Said Take Her
TTITLE9=In Pictures
TTITLE10=Heartbreak Express
EXTD=
EXTT0=
EXTT1=
EXTT2=
EXTT3=
EXTT4=
EXTT5=
EXTT6=
EXTT7=
EXTT8=
EXTT9=
EXTT10=
PLAYORDER=
